<svg width="1080" height="1080" viewBox="0 0 1080 1080" fill="none" xmlns="http://www.w3.org/2000/svg">
<rect width="1080" height="1080" fill="white"/>
<path d="M780.79 598.796L778.05 541.381L880.03 433H934.825L842.891 532.784L815.493 562.259L780.79 598.796ZM736.649 647.92V433H785.661V647.92H736.649ZM882.465 647.92L806.665 554.276L838.934 518.968L940 647.92H882.465Z" fill="#ED1C24"/>
<path d="M592.574 647.92V473.528H524.384V433H710.079V473.528H641.889V647.92H592.574Z" fill="#ED1C24"/>
<path d="M334.389 647.92V433H426.628C445.704 433 462.143 436.173 475.943 442.518C489.743 448.658 500.398 457.562 507.907 469.229C515.416 480.897 519.17 494.815 519.17 510.985C519.17 526.951 515.416 540.767 507.907 552.434C500.398 564.101 489.743 573.108 475.943 579.453C462.143 585.593 445.704 588.664 426.628 588.664H361.787L383.705 566.251V647.92H334.389ZM383.705 571.777L361.787 548.136H423.888C439.109 548.136 450.474 544.861 457.982 538.311C465.491 531.761 469.246 522.652 469.246 510.985C469.246 499.114 465.491 489.903 457.982 483.353C450.474 476.803 439.109 473.528 423.888 473.528H361.787L383.705 449.887V571.777Z" fill="#ED1C24"/>
<path d="M185.663 529.714H287.947V569.628H185.663V529.714ZM189.316 647.92H140V433H301.037V472.914H189.316V647.92Z" fill="#ED1C24"/>
</svg>
